# xmcd
#
# Track frame offsets: 
#        150
#        22255
#        39250
#        53735
#        68410
#        92910
#        115185
#        130210
#        144550
#        164425
#        176195
#        201430
#
# Disc length: 3297 seconds
#
# Revision: 0
# Processed by: cddbd v1.5.1PL0 Copyright (c) Steve Scherf et al.
# Submitted via: ExactAudioCopy v0.95a4
#
DISCID=ac0cdf0c
DTITLE=Buddy Miller - The Borderline - London - 2-14-2000
DYEAR=2000
DGENRE=Alternative
TTITLE0=100 Million Little Bombs
TTITLE1=Don't Tell Me
TTITLE2=Help Wanted
TTITLE3=You Wrecked My Heart
TTITLE4=Sometimes I Cry
TTITLE5=My Little Cajun Baby
TTITLE6=How I Got to Memphis
TTITLE7=I'm Pretending
TTITLE8=Somewhere Trouble Don't Go
TTITLE9=Hole in My Head
TTITLE10=Nadine
TTITLE11=Interview with Bob Harris
EXTD=
EXTT0=
EXTT1=
EXTT2=
EXTT3=
EXTT4=
EXTT5=
EXTT6=
EXTT7=
EXTT8=
EXTT9=
EXTT10=
EXTT11=
PLAYORDER=
